<?xml version="1.0" encoding="utf-8"?>
<!-- Generator: Adobe Illustrator 24.2.1, SVG Export Plug-In . SVG Version: 6.00 Build 0)  -->
<svg version="1.1" id="Layer_1" xmlns="http://www.w3.org/2000/svg" xmlns:xlink="http://www.w3.org/1999/xlink" x="0px" y="0px"
	 viewBox="0 0 56.7 56.7" style="enable-background:new 0 0 56.7 56.7;" xml:space="preserve">
<style type="text/css">
	.st0{fill:#FF88DB;}
</style>
<g>
	<path class="st0" d="M38,27.3c-3.2,0-3.6,3.2-3.6,3.2h6.7C41.2,30.4,41.2,27.3,38,27.3z"/>
	<path class="st0" d="M22.7,30.4h-6v5.5H22c0.1,0,0.2,0,0.4,0c0.9,0,2.5-0.3,2.5-2.7C24.9,30.4,22.7,30.4,22.7,30.4z"/>
	<path class="st0" d="M28.3,5.1c-13.6,0-24.6,11-24.6,24.6s11,24.6,24.6,24.6c13.6,0,24.6-11,24.6-24.6C53,16.1,41.9,5.1,28.3,5.1z
		 M33.5,20.2H42v2.5h-8.5V20.2z M29.2,33.5c0,6.3-6.5,6.1-6.5,6.1h-6h-0.2H12V19h4.5h0.2h6c3.2,0,5.8,1.8,5.8,5.5s-3.1,3.9-3.1,3.9
		C29.5,28.4,29.2,33.5,29.2,33.5z M45.1,33.2H34.5c0,3.8,3.6,3.6,3.6,3.6c3.4,0,3.3-2.2,3.3-2.2H45c0,5.9-7,5.5-7,5.5
		c-8.4,0-7.9-7.9-7.9-7.9s0-7.9,7.9-7.9C46.3,24.2,45.1,33.2,45.1,33.2z"/>
	<path class="st0" d="M24.2,24.8c0-2.1-1.5-2.1-1.5-2.1H22h-5.2v4.6h5.6C23.3,27.3,24.2,26.9,24.2,24.8z"/>
</g>
</svg>
