<?xml version="1.0" encoding="utf-8"?>
<!-- Generator: Adobe Illustrator 24.2.1, SVG Export Plug-In . SVG Version: 6.00 Build 0)  -->
<svg version="1.1" id="Layer_1" xmlns="http://www.w3.org/2000/svg" xmlns:xlink="http://www.w3.org/1999/xlink" x="0px" y="0px"
	 viewBox="0 0 35 35" style="enable-background:new 0 0 35 35;" xml:space="preserve">
<style type="text/css">
	.st0{fill:#FF88DB;}
</style>
<g id="DAiLYGROUNDS-iOS-app">
	<g id="_x31_4-Order-confirmation" transform="translate(-138.000000, -719.000000)">
		<g id="Social" transform="translate(46.000000, 661.000000)">
			<path id="Path" class="st0" d="M127,75.6c0-9.7-7.8-17.6-17.5-17.6C99.8,58,92,65.9,92,75.6c0,8.8,6.4,16.1,14.8,17.4V80.7h-4.4
				v-5.1h4.4v-3.9c0-4.4,2.6-6.9,6.6-6.9c1.9,0,3.9,0.3,3.9,0.3v4.3h-2.2c-2.2,0-2.9,1.4-2.9,2.7v3.3h4.9l-0.8,5.1h-4.1V93
				C120.6,91.7,127,84.4,127,75.6z"/>
		</g>
	</g>
</g>
</svg>
