<?xml version="1.0" encoding="utf-8"?>
<!-- Generator: Adobe Illustrator 24.2.1, SVG Export Plug-In . SVG Version: 6.00 Build 0)  -->
<svg version="1.1" id="Layer_1" xmlns="http://www.w3.org/2000/svg" xmlns:xlink="http://www.w3.org/1999/xlink" x="0px" y="0px"
	 viewBox="0 0 35 35" style="enable-background:new 0 0 35 35;" xml:space="preserve">
<style type="text/css">
	.st0{fill:#FF88DB;}
</style>
<g id="DAiLYGROUNDS-iOS-app">
	<g id="_x31_4-Order-confirmation" transform="translate(-240.000000, -719.000000)">
		<g id="Social" transform="translate(46.000000, 661.000000)">
			<path id="Shape" class="st0" d="M211.5,58c-4.8,0-5.3,0-7.2,0.1c-1.9,0.1-3.1,0.4-4.2,0.8c-1.2,0.4-2.1,1-3.1,2
				c-1,1-1.6,1.9-2,3.1c-0.4,1.1-0.7,2.4-0.8,4.2c-0.1,1.9-0.1,2.5-0.1,7.2s0,5.3,0.1,7.2c0.1,1.9,0.4,3.1,0.8,4.2
				c0.4,1.1,1,2.1,2,3.1c1,1,1.9,1.6,3.1,2c1.1,0.4,2.4,0.7,4.2,0.8c1.9,0.1,2.5,0.1,7.2,0.1s5.3,0,7.2-0.1c1.9-0.1,3.1-0.4,4.2-0.8
				c1.1-0.4,2.1-1,3.1-2c1-1,1.6-1.9,2-3.1c0.4-1.1,0.7-2.4,0.8-4.2c0.1-1.9,0.1-2.5,0.1-7.2s0-5.3-0.1-7.2
				c-0.1-1.9-0.4-3.1-0.8-4.2c-0.4-1.2-1-2.1-2-3.1c-1-1-1.9-1.6-3.1-2c-1.1-0.4-2.4-0.7-4.2-0.8C216.8,58,216.3,58,211.5,58z
				 M211.5,61.2c4.7,0,5.2,0,7.1,0.1c1.7,0.1,2.6,0.4,3.2,0.6c0.8,0.3,1.4,0.7,2,1.3c0.6,0.6,1,1.2,1.3,2c0.2,0.6,0.5,1.5,0.6,3.2
				c0.1,1.8,0.1,2.4,0.1,7.1s0,5.2-0.1,7.1c-0.1,1.7-0.4,2.6-0.6,3.2c-0.3,0.8-0.7,1.4-1.3,2c-0.6,0.6-1.2,1-2,1.3
				c-0.6,0.2-1.6,0.5-3.3,0.6c-1.9,0.1-2.4,0.1-7.1,0.1c-4.7,0-5.2,0-7.1-0.1c-1.7-0.1-2.6-0.4-3.3-0.6c-0.8-0.3-1.4-0.7-2-1.3
				c-0.6-0.6-1-1.2-1.3-2c-0.2-0.6-0.5-1.6-0.6-3.3c-0.1-1.8-0.1-2.4-0.1-7.1c0-4.7,0-5.2,0.1-7.1c0.1-1.7,0.4-2.6,0.6-3.3
				c0.3-0.8,0.7-1.4,1.3-2c0.6-0.6,1.2-1,2-1.3c0.6-0.2,1.5-0.5,3.2-0.6C206.2,61.1,206.8,61.1,211.5,61.2L211.5,61.2L211.5,61.2z
				 M211.5,66.5c-5,0-9,4-9,9c0,5,4,9,9,9c5,0,9-4,9-9C220.5,70.5,216.5,66.5,211.5,66.5z M211.5,81.3c-3.2,0-5.8-2.6-5.8-5.8
				s2.6-5.8,5.8-5.8s5.8,2.6,5.8,5.8S214.7,81.3,211.5,81.3z M222.9,66.2c0,1.2-0.9,2.1-2.1,2.1c-1.2,0-2.1-0.9-2.1-2.1
				c0-1.2,0.9-2.1,2.1-2.1C222,64.1,222.9,65,222.9,66.2z"/>
		</g>
	</g>
</g>
</svg>
