<?xml version="1.0" encoding="utf-8"?>
<!-- Generator: Adobe Illustrator 24.2.1, SVG Export Plug-In . SVG Version: 6.00 Build 0)  -->
<svg version="1.1" id="Layer_1" xmlns="http://www.w3.org/2000/svg" xmlns:xlink="http://www.w3.org/1999/xlink" x="0px" y="0px"
	 viewBox="0 0 512 512" style="enable-background:new 0 0 512 512;" xml:space="preserve">
<style type="text/css">
	.st0{fill:url(#SVGID_1_);}
	.st1{fill:#FF88DB;}
</style>
<linearGradient id="SVGID_1_" gradientUnits="userSpaceOnUse" x1="8.9757" y1="592.9901" x2="577.9231" y2="-43.6891" gradientTransform="matrix(1 0 0 -1 0 514)">
	<stop  offset="0" style="stop-color:#517FA6"/>
	<stop  offset="1" style="stop-color:#426699"/>
</linearGradient>
<path class="st0" d="M271.1,214.4v-0.5c-0.1,0.2-0.2,0.4-0.3,0.5H271.1z"/>
<path class="st1" d="M256,7.1C118.5,7.1,7.1,118.5,7.1,256S118.5,504.9,256,504.9S504.9,393.5,504.9,256
	C504.9,118.5,393.5,7.1,256,7.1z M187.5,352.8h-53.8V190.9h53.8L187.5,352.8L187.5,352.8z M160.6,168.8h-0.4
	c-18.1,0-29.8-12.4-29.8-28c0-15.9,12.1-28,30.5-28c18.4,0,29.7,12.1,30.1,28C191,156.3,179.3,168.8,160.6,168.8z M381.6,352.8
	h-53.8v-86.6c0-21.8-7.8-36.6-27.3-36.6c-14.9,0-23.7,10-27.6,19.7c-1.4,3.5-1.8,8.3-1.8,13.1v90.4h-53.8c0,0,0.7-146.7,0-161.9
	h53.8v22.9c7.1-11,19.9-26.8,48.5-26.8c35.4,0,62,23.1,62,72.9L381.6,352.8L381.6,352.8z"/>
</svg>
