<?xml version="1.0" encoding="UTF-8"?>
<svg width="35px" height="29px" viewBox="0 0 35 29" version="1.1" xmlns="http://www.w3.org/2000/svg" xmlns:xlink="http://www.w3.org/1999/xlink">
    <title>Path</title>
    <g id="DAiLYGROUNDS-iOS-app" stroke="none" stroke-width="1" fill="none" fill-rule="evenodd">
        <g id="14-Order-confirmation" transform="translate(-189.000000, -722.000000)" fill="#6CAACE" fill-rule="nonzero">
            <g id="Social" transform="translate(46.000000, 661.000000)">
                <path d="M177.931461,64.4534782 C176.64089,65.0317835 175.262822,65.4257446 173.811841,65.6056287 C175.29053,64.6972882 176.427982,63.2656482 176.966085,61.5574922 C175.579268,62.3825806 174.042248,62.9831855 172.406066,63.3176808 C171.099454,61.8919875 169.23724,61 167.16941,61 C163.207283,61 159.994709,64.2750807 159.994709,68.3098375 C159.994709,68.8896294 160.060331,69.4471215 160.179909,69.9808274 C154.215574,69.6939048 148.929336,66.7741324 145.391567,62.3602809 C144.768885,63.4336392 144.420357,64.680935 144.420357,66.0397293 C144.420357,68.5818937 145.689055,70.8163223 147.611058,72.1290306 C146.434232,72.0903778 145.327403,71.7603424 144.362027,71.2132568 L144.362027,71.3039422 C144.362027,74.8495925 146.830882,77.806531 150.11637,78.4799815 C149.514104,78.6449992 148.878297,78.734198 148.226449,78.734198 C147.768551,78.734198 147.329611,78.6895986 146.890671,78.6063464 C147.810841,81.5097657 150.456148,83.6267494 153.604558,83.6862152 C151.15466,85.647101 148.049998,86.8156047 144.706179,86.8156047 C144.137453,86.8156047 143.570185,86.7814118 143,86.7159994 C146.192159,88.7883837 149.953044,90 154.020166,90 C167.223366,90 174.434524,78.8561029 174.434524,69.2077716 C174.434524,68.8970626 174.434524,68.5833803 174.412649,68.2711847 C175.814049,67.2468857 177.03754,65.9520172 178,64.4832112 L177.931461,64.4534782 Z" id="Path"></path>
            </g>
        </g>
    </g>
</svg>