<?xml version="1.0" encoding="UTF-8"?>
<svg width="182px" height="227px" viewBox="0 0 182 227" version="1.1" xmlns="http://www.w3.org/2000/svg" xmlns:xlink="http://www.w3.org/1999/xlink">
    <title>Logo Copy</title>
    <defs>
        <polygon id="path-1" points="0.216613485 0.0050986924 68.2166135 0.0050986924 68.2166135 133.005099 0.216613485 133.005099"></polygon>
        <polygon id="path-3" points="0.275374433 0.0230570459 179.275374 0.0230570459 179.275374 177.023057 0.275374433 177.023057"></polygon>
    </defs>
    <g id="Style-guide" stroke="none" stroke-width="1" fill="none" fill-rule="evenodd">
        <g id="UI-Guide" transform="translate(-611.000000, -313.000000)">
            <g id="UI-Style-Guide" transform="translate(107.000000, 88.000000)">
                <g id="Logos" transform="translate(112.000000, 225.000000)">
                    <g id="Initials-logo" transform="translate(392.000000, 0.000000)">
                        <g id="Group-3">
                            <mask id="mask-2" fill="white">
                                <use xlink:href="#path-1"></use>
                            </mask>
                            <g id="Clip-2"></g>
                            <path d="M20.4266626,120.657488 C22.6469245,121.392501 27.471971,122.914928 29.096935,123.094786 C30.8970703,123.293056 32.7014782,123.070711 34.2951107,122.875274 L35.0456418,122.784636 C36.0197657,122.671339 36.9867688,122.202574 38.0107383,121.7069 C38.5163143,121.460479 39.0204661,121.218307 39.5303146,121.010124 C40.8789919,120.459219 42.6406751,119.455125 44.193007,118.569994 L44.6957347,118.283919 C46.2380975,117.407285 48.5224465,115.467077 50.1061099,114.083439 C51.4818463,112.883909 52.6909562,111.505936 54.2845888,109.326388 C55.6218729,107.496645 56.3496175,105.88783 57.1898706,104.025513 L57.4305532,103.494434 C58.3377417,101.498993 58.7279609,99.490807 59.0483964,97.6058309 C59.3389246,95.9134594 59.4172533,92.5513759 59.3446212,90.2457853 C59.2762616,88.1469614 58.9743402,85.2224869 58.7336575,83.7198876 C58.4929749,82.2116235 57.3308622,77.6089396 56.6145108,75.7381256 C55.9052803,73.8913872 52.6040826,67.3258357 51.5672958,65.7028585 C50.5461747,64.0997083 47.858789,60.9188997 46.7023729,59.6641372 C45.5915299,58.4518611 44.4165998,57.7055182 43.2131865,57.4392706 C42.2262452,57.2211742 41.7591214,57.3514656 39.940472,57.9306956 C39.5474045,58.0553222 39.1073397,58.1969432 38.604612,58.3484777 C36.2547518,58.841319 31.6347841,62.5248823 29.4145221,65.2185145 C28.0516032,66.6970382 23.8474895,72.9496073 22.9274836,75.8202658 C21.991812,78.7404917 21.350941,81.9892785 21.269764,88.3494795 C21.2056769,89.9823701 20.6545279,111.651806 20.4266626,120.657488 M30.586604,126.005099 C29.9955785,126.005099 29.3917356,125.978191 28.7807719,125.910213 C26.9507292,125.706278 22.5742925,124.338219 20.3511823,123.615952 C20.3383649,124.18102 20.3298199,124.506748 20.3298199,124.537905 C20.3098817,125.313988 19.671859,125.955531 18.8842998,125.91871 C18.1038614,125.90738 17.4786561,125.272918 17.4815044,124.496835 L17.6381618,88.3254039 L18.1081338,70.0534569 C18.1067097,69.3425193 18.073954,51.6951211 18.1067097,49.5056598 C18.1380411,47.3841766 16.7039143,19.9096942 16.2538804,17.6664169 C16.2424872,17.6126009 16.2353664,17.5587849 16.2310939,17.5035527 C15.4022341,7.22044871 5.81195589,6.96269841 5.40464678,6.95703357 C4.61993586,6.94570388 3.99045814,6.30557677 4.00031045,5.52524482 C4.00897219,4.74491287 4.6085426,4.07504534 5.43455409,4.1246127 C5.55987997,4.12602891 17.9842321,4.38094679 19.0637437,17.2047323 C19.5949545,20.2835737 20.9906291,47.1873233 20.9550252,49.5467299 C20.9222695,51.7135319 20.9564493,69.9019224 20.9564493,70.0860298 L20.872424,73.317822 C22.5329919,69.7475555 25.9936952,64.737003 27.2640439,63.3632789 C29.4885783,60.6611494 34.6055771,56.2893078 37.899654,55.6066943 C38.2628142,55.4891489 38.6914857,55.3546089 39.0745841,55.2328148 C40.9373824,54.6394226 42.0610429,54.2839538 43.8284226,54.6734117 C45.6157406,55.0685344 47.2905501,56.1037842 48.8058539,57.7522531 C49.9807841,59.0296749 52.7949198,62.3351101 53.9741224,64.1860971 C55.1205694,65.9832682 58.4915507,72.6833597 59.2762616,74.7283676 C60.0766383,76.8158618 61.2757791,81.5814099 61.5463691,83.2751975 C61.8012933,84.8627694 62.1188805,87.9444433 62.1900884,90.156564 C62.2456305,91.8999191 62.2470547,95.7987464 61.8568355,98.0802614 C61.5050685,100.146512 61.0735487,102.357217 60.0267928,104.661391 L59.7889584,105.186805 C58.918798,107.110019 58.0984832,108.925601 56.588876,110.991852 C54.8841592,113.321518 53.5084228,114.883598 51.984574,116.212004 C50.3083403,117.676365 47.8744548,119.739784 46.1084992,120.743877 L45.6114681,121.027119 C43.9808075,121.956153 42.1336749,123.008397 40.6126744,123.630114 C40.156944,123.814221 39.7083343,124.033734 39.2583004,124.253246 C38.1203984,124.804152 36.8315356,125.428701 35.3746223,125.59723 L34.6454535,125.686451 C33.457706,125.832321 32.0648797,126.005099 30.586604,126.005099" id="Fill-1" stroke="#FF88DB" stroke-width="1.91" fill="#FF88DB" mask="url(#mask-2)"></path>
                        </g>
                        <path d="M111.849255,126.76 C111.587228,126.76 111.319798,126.68102 111.087486,126.514745 C110.944316,126.414981 107.600094,123.990148 106.738376,118.740039 L106.650583,118.388092 C106.304816,116.935963 105.975256,115.565586 105.726735,111.561148 C105.36611,107.625991 105.457955,103.801683 105.524137,101.008276 C105.370162,98.0901625 105.28372,93.843241 105.32424,91.2008661 L105.367461,88.2924523 C105.413383,85.0639606 105.476864,80.7242027 105.524137,78.8300619 C105.547098,77.9155535 105.578163,77.1008097 105.610579,76.2888371 C105.670008,74.7798983 105.725384,73.3554822 105.724034,71.3144658 C105.719982,68.1220002 105.158109,64.8824236 104.947407,63.6616935 L104.908238,63.4372232 C104.126209,58.7136489 102.367656,56.5756392 99.3719024,56.7377566 C98.4507556,56.8181225 96.8542811,58.0388526 95.1632608,59.3316349 C94.7026874,59.6849677 94.2218542,60.050771 93.7207611,60.4235025 C91.1315551,62.3453557 88.5882714,66.1170099 86.9121083,68.9436721 C85.6006221,71.1551197 83.2072611,76.1225629 81.6229426,79.4092505 C80.8908874,80.9292743 80.2938978,82.1666318 79.9791952,82.7763041 C78.6177348,85.4075941 77.5128988,88.206544 76.6971031,91.0927878 C75.9826065,93.6173852 75.8542942,95.8163621 75.730034,97.9446725 C75.6800597,98.7954424 75.6300855,99.6295849 75.5476955,100.459571 C75.2613566,103.333344 73.9714809,122.869183 73.9579743,123.06594 C73.9066495,123.826645 73.258335,124.380893 72.5289812,124.355951 C71.7874715,124.30884 71.2215469,123.658985 71.2607159,122.898281 L71.8590562,111.570847 C71.8563549,111.570847 71.7293933,103.205867 71.6578086,100.702054 C71.6172889,99.2291411 71.2931317,96.1780086 71.0324552,93.7240778 C70.8555194,92.0585641 70.7028953,90.6202918 70.665077,89.9288681 C70.5772844,88.3908313 69.015927,73.6658608 68.2946771,69.6794357 C67.8611168,64.7272343 65.9796541,59.3080794 65.9593943,59.2540402 C65.7081724,58.5349041 66.0728493,57.7409446 66.77519,57.4818339 C67.4748294,57.2213375 68.2501055,57.5968402 68.502678,58.317362 C68.585068,58.5515315 70.5192062,64.1203333 70.9676238,69.303933 C71.6848217,73.2280053 73.2731922,88.2051583 73.3609848,89.7695219 C73.3879979,90.2517172 73.489297,91.2507484 73.6095053,92.4049688 C73.7391682,91.7329437 73.8998962,91.0387487 74.1038451,90.3209982 C74.9709657,87.2518526 76.1446851,84.2769292 77.5925875,81.4765937 C77.9005369,80.8821633 78.4853705,79.6697469 79.2012178,78.1815923 C80.9030433,74.6524214 83.2329235,69.8179976 84.6038386,67.5040143 C86.4096646,64.4598099 89.1839103,60.3708489 92.1377932,58.1774145 C92.628081,57.8143824 93.0981091,57.4541215 93.5492279,57.1091024 C95.730536,55.4408174 97.4553227,54.123094 99.189564,53.9734472 C102.337941,53.7988592 106.291309,55.2454452 107.57173,62.9730409 L107.605496,63.1781125 C107.828355,64.4611955 108.421292,67.8753601 108.425344,71.3116946 C108.426695,73.410907 108.367266,74.9309307 108.310538,76.3996866 C108.278123,77.197803 108.247058,78.0014619 108.225447,78.9007285 C108.178174,80.7893268 108.114693,85.1152285 108.068771,88.3354065 L108.02555,91.2452059 C107.986381,93.8321561 108.070122,97.9959404 108.224097,100.929295 C108.225447,100.966707 108.225447,101.040145 108.224097,101.076171 C108.160616,103.800297 108.070122,107.530383 108.419942,111.343606 C108.657657,115.142972 108.956152,116.398343 109.274906,117.727151 L109.384309,118.187177 C110.067741,122.328791 112.525933,124.164736 112.629934,124.242331 C113.233677,124.682957 113.383599,125.544812 112.955442,126.168341 C112.693415,126.553543 112.274711,126.76 111.849255,126.76" id="Fill-4" stroke="#FF88DB" stroke-width="1.91" fill="#FF88DB"></path>
                        <g id="Group-8" transform="translate(1.820000, 48.140000)">
                            <mask id="mask-4" fill="white">
                                <use xlink:href="#path-3"></use>
                            </mask>
                            <g id="Clip-7"></g>
                            <path d="M34.2873006,120.297295 C34.7904213,122.339976 37.4363592,123.979112 41.5888561,124.811161 C44.6159885,125.544751 53.0695361,124.647525 58.8519196,117.32688 C60.1664798,115.427035 61.8019722,111.520565 61.8566288,107.482354 C54.9362677,109.054926 50.0031631,110.219795 46.5135521,111.315326 C43.4149457,112.143215 34.7469763,115.51024 34.2873006,120.297295 M44.9551395,93.9532363 C43.5396748,93.9532363 42.0247071,94.0350545 40.3976235,94.1959173 C35.5598174,94.5107092 22.8556714,99.6486119 15.2009505,110.115789 C13.2935768,112.428885 7.083751,124.697448 8.21331985,138.430417 C8.53285049,141.348136 12.0560963,153.640273 23.374208,159.81269 C31.3022117,163.450131 34.5633863,163.997897 41.7093808,165.196048 L44.4099754,165.652288 C54.4037167,166.928096 66.5388739,165.9754 74.5425559,164.659376 C87.2985555,163.08819 102.760755,152.085728 104.949821,149.958456 C108.250236,146.748134 116.22729,137.847983 119.002162,124.531038 C119.013373,124.481115 119.025986,124.431192 119.042804,124.382656 C119.74493,122.242903 120.318123,117.03705 120.660077,113.926573 L120.791814,112.743677 C120.936163,111.462321 121.188424,108.296375 121.425269,105.126268 C118.21735,105.172031 114.207801,105.241368 110.649519,105.302385 C105.438927,105.391137 100.958491,105.475729 99.945242,105.461861 C98.0841162,105.453541 84.0668114,105.624111 78.0924292,105.698995 L75.6581103,105.728117 C74.5019138,105.739211 69.4258613,105.966638 64.6805509,106.862477 C64.7758495,111.760472 62.7998048,116.5295 61.1138602,118.966017 C54.9614938,126.755382 45.6432515,128.64136 40.9792253,127.518094 C33.5893784,126.03982 31.8641933,122.579883 31.4984148,120.649529 C31.4759916,120.541363 31.4689843,120.430423 31.4745901,120.319483 C31.9062368,112.426111 45.1611527,108.805311 45.7245356,108.654156 C49.3192554,107.525343 54.4149283,106.325805 61.6197837,104.689442 C61.2385892,102.729967 60.3752959,100.841216 58.8042703,99.2450682 C55.7322914,95.6353621 51.3779857,93.9532363 44.9551395,93.9532363 M54.8788083,169.023473 C51.1747754,169.023473 47.4651368,168.837649 43.9909418,168.395276 L41.2412965,167.930715 C34.0658715,166.727018 30.4627431,166.123782 22.1086985,162.285263 C9.85021367,155.605296 5.86028498,142.691895 5.42163107,138.692513 C4.23039841,124.202379 10.6378287,111.259856 12.9796519,108.425342 C21.2257849,97.1483046 34.7623923,91.7829751 40.1663842,91.4321278 C50.0003602,90.4586304 56.5997891,92.3487685 60.8812194,97.3854386 C62.8446512,99.378196 63.9223664,101.701 64.3918522,104.09314 C69.2969278,103.195914 74.4416515,102.965714 75.6286798,102.95462 L78.0559915,102.925498 C84.0387824,102.850614 98.0630944,102.698072 99.9648623,102.688364 C100.922053,102.685591 105.628123,102.61348 110.601869,102.528888 C114.387186,102.465098 118.438779,102.394374 121.629881,102.349998 C121.847106,99.383743 122.013878,96.9638671 122.018083,96.9014634 C122.016681,96.9028501 122.332007,85.3470759 122.416094,82.5319767 C122.497379,78.8251983 122.152622,69.7738916 122.149819,69.683753 L121.834493,59.7171924 C121.833091,59.7158056 121.505152,49.0461636 121.412656,46.4460104 C121.321562,43.8999404 120.657274,34.4686646 120.650267,34.3743658 L119.51229,6.11382055 C119.482859,5.3469487 120.086884,4.7048842 120.859083,4.67714923 C121.624275,4.6161323 122.284358,5.24571607 122.312387,6.01120117 L122.755245,17.960812 L123.448963,34.2204367 C123.475591,34.5726708 124.121659,43.7543318 124.212754,46.348938 C124.305249,48.9518647 124.635991,59.6326007 124.635991,59.6326007 L124.951318,69.5880673 C124.965332,69.9527822 125.30168,78.8030103 125.218995,82.6013141 C125.133506,85.4344411 124.81818,97.0332045 124.81818,97.0345912 C124.801363,97.2744987 124.645802,99.5335118 124.442591,102.313942 C125.91972,102.298688 126.97361,102.294528 127.375827,102.308395 C131.030809,102.433203 145.031296,102.883896 146.725649,102.793757 C149.622447,102.667563 154.017395,101.842448 155.571603,101.350152 C162.051909,99.2547754 167.985649,91.1214962 169.064765,86.6617134 C169.080181,86.5965362 169.099802,86.5341325 169.125028,86.4731156 C171.67847,80.0899128 166.658475,70.6697311 165.049611,69.4272045 C160.192184,64.916112 152.89203,69.3980828 152.816352,69.4438455 C152.16748,69.8529363 151.298581,69.6601783 150.883752,69.0153403 C150.470324,68.3691155 150.662323,67.5134918 151.313997,67.1030142 C151.686783,66.867267 160.515919,61.4159591 166.870094,67.3235072 C169.326837,69.2108718 174.736434,79.7848282 171.768163,87.402237 C170.429778,92.720417 163.998523,101.544297 156.434896,103.987748 C154.70831,104.5369 150.126969,105.420259 146.860189,105.564481 C144.766422,105.678194 127.454308,105.086052 127.279127,105.079119 C126.893728,105.069411 125.785181,105.072185 124.239381,105.088826 C123.994127,108.362939 123.730655,111.691135 123.577897,113.051535 L123.44616,114.227498 C123.073375,117.616711 122.511393,122.721331 121.732187,125.163395 C118.78774,139.187582 110.391652,148.555067 106.914654,151.934573 C104.518174,154.265697 88.5486491,165.729946 74.9447721,167.403751 C69.5323715,168.29543 62.2182029,169.023473 54.8788083,169.023473" id="Fill-6" stroke="#FF88DB" stroke-width="1.91" fill="#FF88DB" mask="url(#mask-4)"></path>
                        </g>
                        <path d="M124.12,37.58 C124.12,38.5852 123.3052,39.4 122.3,39.4 C121.2948,39.4 120.48,38.5852 120.48,37.58 C120.48,36.5748 121.2948,35.76 122.3,35.76 C123.3052,35.76 124.12,36.5748 124.12,37.58" id="Fill-9" stroke="#FF88DB" stroke-width="1.91" fill="#FF88DB"></path>
                    </g>
                </g>
            </g>
        </g>
    </g>
</svg>