<?xml version="1.0" encoding="UTF-8"?>
<svg width="132px" height="88px" viewBox="0 0 132 88" version="1.1" xmlns="http://www.w3.org/2000/svg" xmlns:xlink="http://www.w3.org/1999/xlink">
    <title>logo1</title>
    <defs>
        <polygon id="path-1" points="0.391005186 0.309653343 27.8910052 0.309653343 27.8910052 52.8096535 0.391005186 52.8096535"></polygon>
        <polygon id="path-3" points="0.490528628 0.470406556 68.9905285 0.470406556 68.9905285 67.9704065 0.490528628 67.9704065"></polygon>
    </defs>
    <g id="Page-1" stroke="none" stroke-width="1" fill="none" fill-rule="evenodd">
        <g id="logo1">
            <g id="Initials-logo">
                <g id="Fill-1-Clipped">
                    <mask id="mask-2" fill="white">
                        <use xlink:href="#path-1"></use>
                    </mask>
                    <g id="path-1"></g>
                    <path d="M9.81794715,48.25288 C10.6718941,48.5355774 12.5276811,49.1211259 13.1526673,49.1903024 C13.8450271,49.2665599 14.5390301,49.1810425 15.1519657,49.1058745 L15.4406315,49.0710139 C15.8152945,49.0274382 16.1872188,48.8471437 16.5810532,48.6565 C16.7755055,48.5617228 16.9694101,48.4685798 17.1655056,48.3885094 C17.6842277,48.1766225 18.3617981,47.7904328 18.9588488,47.4499976 L19.1522056,47.339969 C19.7454221,47.002802 20.6240179,46.256568 21.2331192,45.7243997 C21.7622486,45.2630419 22.2272908,44.7330524 22.8402264,43.8947648 C23.3545665,43.1910171 23.6344683,42.5722421 23.9576425,41.8559664 L24.0502128,41.6517053 C24.3991314,40.8842282 24.5492157,40.1118488 24.6724601,39.386858 C24.7842018,38.7359459 24.8143282,37.4428368 24.7863928,36.5560712 C24.7601006,35.7488313 24.643977,34.6240334 24.5514068,34.0461106 C24.4588365,33.466009 24.01187,31.695746 23.7363503,30.9762021 C23.4635694,30.2659181 22.193878,27.740706 21.7951137,27.116484 C21.4023749,26.4998878 20.368765,25.2764998 19.9239896,24.7938989 C19.4967423,24.3276389 19.0448461,24.0405839 18.5819948,23.938181 C18.202402,23.8542978 18.022739,23.9044098 17.3232585,24.1271906 C17.1720786,24.1751239 17.0028229,24.2295935 16.8094661,24.287876 C15.9056738,24.4774303 14.1287631,25.8941855 13.2748162,26.9301979 C12.7506166,27.4988608 11.1336498,29.9036951 10.7798014,31.0077945 C10.4199277,32.1309584 10.1734389,33.3804917 10.142217,35.8267229 C10.117568,36.4547577 9.90558765,44.7891561 9.81794715,48.25288 M13.7256169,50.3096535 C13.4982994,50.3096535 13.2660522,50.299304 13.0310661,50.2731585 C12.3272036,50.1947225 10.6439587,49.6685457 9.78891625,49.3907506 C9.7839865,49.6080845 9.78069995,49.7333646 9.78069995,49.7453479 C9.7730314,50.0438415 9.5276381,50.290589 9.2247307,50.276427 C8.92456205,50.2720695 8.6840985,50.0280455 8.685194,49.7295517 L8.74544685,35.817463 L8.9262053,28.7897911 C8.92565755,28.5163536 8.91305925,21.7288927 8.92565755,20.8867922 C8.93770815,20.0708371 8.3861209,9.50372855 8.21303095,8.64092955 C8.2086489,8.6202311 8.20591015,8.59953265 8.2042669,8.5782895 C7.88547465,4.62324951 4.19690611,4.52411477 4.04024876,4.52193599 C3.73843687,4.51757841 3.49633005,4.27137568 3.50007552,3.97124801 C3.50345084,3.67112033 3.73405484,3.41347897 4.05175157,3.43254335 C4.09995383,3.43308804 8.8785508,3.53113338 9.29374755,8.46335855 C9.49805945,9.64752835 10.0348573,19.9951243 10.0211635,20.9025884 C10.0085652,21.7359738 10.0217112,28.7315086 10.0217112,28.8023191 L9.98939385,30.0453161 C10.6280738,28.6721367 11.9591135,26.7450011 12.4477092,26.2166457 C13.3032993,25.1773651 15.2713758,23.4958876 16.5383285,23.2333439 C16.6780055,23.1881342 16.8428791,23.136388 16.9902246,23.0895441 C17.7066855,22.8613164 18.1388627,22.7245976 18.8186241,22.8743891 C19.506054,23.0263593 20.1502116,23.4245324 20.7330208,24.0585589 C21.184917,24.549875 22.2672768,25.8211962 22.7208163,26.5331143 C23.1617574,27.2243339 24.4582888,29.8012922 24.7601006,30.5878337 C25.0679378,31.390716 25.5291458,33.2236192 25.6332189,33.875076 C25.7312666,34.4856805 25.8534156,35.6709397 25.8808032,36.5217554 C25.9021656,37.1922765 25.9027133,38.6918255 25.752629,39.5693313 C25.6173341,40.3640432 25.4513649,41.2143142 25.0487664,42.1005351 L24.9572917,42.3026174 C24.6226146,43.042315 24.3071089,43.7406157 23.7264907,44.5353276 C23.0708304,45.4313531 22.5417011,46.0321531 21.9556054,46.5430783 C21.3109001,47.1062943 20.3747903,47.8999168 19.6955766,48.2861065 L19.5044108,48.3950458 C18.8772337,48.7523665 18.1667981,49.1570759 17.5817979,49.3961976 C17.4065169,49.4670081 17.2339747,49.551436 17.0608848,49.635864 C16.6232302,49.8477508 16.1275137,50.087962 15.5671624,50.152781 L15.2867129,50.1870965 C14.8298869,50.2432005 14.2941845,50.3096535 13.7256169,50.3096535" id="Fill-1" stroke="#FF88DB" stroke-width="0.85" fill="#FF88DB" fill-rule="nonzero" mask="url(#mask-2)"></path>
                </g>
                <path d="M44.9804827,50.6 C44.8797031,50.6 44.7768455,50.569623 44.6874945,50.5056715 C44.6324293,50.4673005 43.34619,49.5346724 43.0147599,47.5153995 L42.9809936,47.3800352 C42.848006,46.8215243 42.7212521,46.2944562 42.6256674,44.7542877 C42.4869654,43.2407657 42.5222902,41.7698781 42.547745,40.6954906 C42.4885239,39.5731394 42.455277,37.9397081 42.4708615,36.9234101 L42.487485,35.8047894 C42.5051474,34.5630618 42.5295631,32.8939241 42.547745,32.1654084 C42.5565761,31.8136745 42.5685243,31.5003114 42.5809918,31.1880142 C42.6038491,30.6076532 42.6251478,30.0598008 42.6246284,29.2747945 C42.62307,28.0469232 42.4069651,26.8009322 42.3259258,26.3314206 L42.3108608,26.2450858 C42.0100803,24.4283265 41.3337137,23.606015 40.181501,23.6683679 C39.8272137,23.6992779 39.213185,24.1687894 38.5627926,24.6660134 C38.385649,24.8019106 38.2007131,24.9426042 38.0079851,25.0859625 C37.0121366,25.8251368 36.0339506,27.2757731 35.3892724,28.3629508 C34.8848547,29.2135075 33.9643312,31.1240626 33.3549779,32.3881733 C33.0734183,32.9727978 32.8438068,33.4487046 32.7227674,33.6831939 C32.1991287,34.6952285 31.7741919,35.7717477 31.4604242,36.8818415 C31.1856179,37.8528405 31.136267,38.6986008 31.0884746,39.5171817 C31.0692538,39.844401 31.0500329,40.165225 31.0183445,40.4844502 C30.9082141,41.5897476 30.4121081,49.1035318 30.4069132,49.1792078 C30.3871728,49.4717866 30.1378212,49.6849587 29.8573005,49.6753659 C29.5721044,49.6572463 29.3544411,49.407302 29.3695061,49.1147233 L29.599637,44.7580182 C29.598598,44.7580182 29.5497666,41.5407181 29.5222341,40.577713 C29.5066496,40.0112081 29.3819737,38.8376956 29.2817135,37.8938761 C29.2136613,37.2532939 29.1549597,36.7001122 29.1404142,36.4341801 C29.1066479,35.8426274 28.5061257,30.1791772 28.228722,28.6459368 C28.061968,26.741244 27.3383285,24.6569536 27.3305363,24.6361693 C27.2339125,24.3595785 27.3741729,24.0542094 27.6443039,23.9545515 C27.913396,23.8543606 28.2115791,23.9987847 28.3087223,24.2759084 C28.3404108,24.3659737 29.0843101,26.5078205 29.2567784,28.5015127 C29.5326237,30.0107713 30.1435355,35.7712147 30.1773018,36.3728931 C30.1876915,36.5583528 30.2266527,36.9425955 30.2728867,37.3865264 C30.322757,37.1280553 30.3845754,36.8610572 30.4630174,36.5849993 C30.7965253,35.4045587 31.2479558,34.2603574 31.8048414,33.1833052 C31.9232834,32.9546782 32.1482194,32.4883642 32.4235453,31.9159971 C33.0780936,30.5586236 33.9742014,28.6992298 34.5014763,27.8092363 C35.1960249,26.6383884 36.2630425,25.0657111 37.3991513,24.2220825 C37.5877235,24.0824548 37.7685035,23.9438929 37.9420108,23.8111932 C38.7809754,23.1695452 39.4443549,22.6627284 40.1113707,22.605172 C41.3222851,22.5380228 42.8428112,23.094402 43.3352808,26.0665542 L43.3482678,26.1454279 C43.4339825,26.6389214 43.6620354,27.9520615 43.6635939,29.2737287 C43.6641134,30.0811181 43.6412561,30.6657426 43.6194378,31.2306487 C43.6069703,31.5376165 43.5950222,31.8467161 43.5867104,32.1925879 C43.5685286,32.9189718 43.5441128,34.5827802 43.5264504,35.8213102 L43.509827,36.9404638 C43.494762,37.9354447 43.52697,39.5369002 43.586191,40.6651136 C43.5867104,40.6795027 43.5867104,40.707748 43.586191,40.7216042 C43.5617753,41.7693451 43.52697,43.2039934 43.661516,44.6706176 C43.7529449,46.1319125 43.8677506,46.6147473 43.9903486,47.1258275 L44.0324266,47.3027603 C44.295285,48.895689 45.2407436,49.6018215 45.2807437,49.6316657 C45.5129526,49.8011375 45.5706152,50.13262 45.4059391,50.372439 C45.3051594,50.5205935 45.1441198,50.6 44.9804827,50.6" id="Fill-4" stroke="#FF88DB" stroke-width="0.85" fill="#FF88DB" fill-rule="nonzero"></path>
                <g id="Fill-6-Clipped" transform="translate(2.200000, 19.400000)">
                    <mask id="mask-4" fill="white">
                        <use xlink:href="#path-3"></use>
                    </mask>
                    <g id="path-3"></g>
                    <path d="M13.6489618,47.2297289 C13.8424697,48.0153752 14.8601381,48.6458124 16.4572523,48.9658312 C17.6215341,49.2479812 20.8728985,48.9028942 23.0968921,46.0872616 C23.6024922,45.3565519 24.2315278,43.8540634 24.2525495,42.3009052 C21.5908722,42.9057408 19.6935242,43.3537672 18.3513662,43.7751254 C17.1595945,44.0935441 13.8257601,45.3885538 13.6489618,47.2297289 M17.7519768,37.0973986 C17.2075673,37.0973986 16.6248874,37.1288671 15.999086,37.1907374 C14.1383913,37.3118112 9.2521813,39.2879276 6.3080579,43.3137649 C5.5744526,44.2034173 3.18605808,48.9220953 3.62050764,54.2040065 C3.74340404,55.326206 5.09849855,60.0539515 9.45161845,62.427958 C12.5008507,63.8269735 13.7551486,64.0376525 16.503608,64.49848 L17.5422982,64.673957 C21.3860449,65.1646525 26.053413,64.798231 29.1317522,64.2920675 C34.037906,63.6877655 39.984906,59.4560495 40.8268541,58.637868 C42.0962446,57.4031285 45.1643424,53.9799935 46.2316006,48.8580915 C46.2359128,48.8388904 46.240764,48.8196893 46.2472323,48.8010215 C46.5172809,47.9780397 46.7377398,45.9757884 46.8692605,44.7794512 L46.9199283,44.3244911 C46.9754473,43.831662 47.0724708,42.6139903 47.1635651,41.3947184 C45.9297499,41.4123195 44.3876157,41.4389877 43.0190456,41.4624558 C41.0149719,41.4965911 39.2917272,41.5291264 38.9020162,41.5237927 C38.1861986,41.5205925 32.7949275,41.5861964 30.4970881,41.6149981 L29.5608116,41.6261988 C29.1161207,41.6304657 27.1637928,41.7179375 25.3386735,42.0624911 C25.3753267,43.9463355 24.6153095,45.7805769 23.9668693,46.7176988 C21.6005746,49.7136086 18.0166352,50.4389845 16.2227789,50.0069595 C13.3805302,49.4383924 12.7169974,48.1076473 12.5763134,47.3652036 C12.5676891,47.3236011 12.564994,47.280932 12.5671501,47.2382628 C12.733168,44.2023506 17.8312126,42.8097352 18.0478983,42.7515984 C19.4304829,42.3174395 21.390357,41.856079 24.1614552,41.2267085 C24.014842,40.4730641 23.6828062,39.7466213 23.0785655,39.1327185 C21.8970352,37.74437 20.2223022,37.0973986 17.7519768,37.0973986 M21.5687724,65.9705665 C20.1441444,65.9705665 18.7173603,65.8990955 17.3811315,65.7289525 L16.3235756,65.550275 C13.5637967,65.0873145 12.1779781,64.855301 8.96488405,63.378947 C4.25008218,60.809729 2.71549423,55.8430365 2.54678118,54.3048125 C2.08861478,48.7316841 4.55301103,43.7537908 5.4537123,42.6635932 C8.62530185,38.326271 13.8316893,36.2626827 15.9101478,36.1277414 C19.6924462,35.7533194 22.2306881,36.4802955 23.8773921,38.4174764 C24.6325582,39.1839215 25.047064,40.0773075 25.2276355,40.9973617 C27.114203,40.6522747 29.0929429,40.5637362 29.5494923,40.5594692 L30.4830737,40.5482686 C32.7841471,40.5194669 38.1781133,40.4607968 38.9095625,40.4570632 C39.2777126,40.4559965 41.0877395,40.4282615 43.0007189,40.3957263 C44.4566101,40.3711915 46.0149149,40.3439899 47.2422618,40.3269222 C47.3258098,39.186055 47.3899531,38.2553335 47.3915702,38.2313321 C47.3910312,38.2318654 47.5123106,33.7873369 47.5446517,32.7046064 C47.5759148,31.2789224 47.443316,27.7976506 47.442238,27.7629819 L47.3209587,23.9296894 C47.3204196,23.929156 47.1942892,19.8254475 47.1587138,18.8253886 C47.1236776,17.8461309 46.8681824,14.2187171 46.8654874,14.1824483 L46.4278037,3.31300791 C46.4164843,3.01805719 46.6488016,2.77110931 46.9458013,2.76044202 C47.2401058,2.73697397 47.4939839,2.97912157 47.5047643,3.27353892 L47.6750944,7.86954305 L47.9419089,14.1232449 C47.9521503,14.2587195 48.2006382,17.7901276 48.2356744,18.7880531 C48.2712497,19.7891787 48.3984582,23.8971541 48.3984582,23.8971541 L48.5197376,27.7261797 C48.5251278,27.8664547 48.6544924,31.2703886 48.6226903,32.7312746 C48.5898101,33.8209388 48.4685308,38.2820017 48.4685308,38.2825351 C48.4620625,38.3748072 48.4022314,39.2436584 48.3240736,40.3130547 C48.8921999,40.3071877 49.2975425,40.3055876 49.452241,40.3109213 C50.8580035,40.3589241 56.242806,40.5322676 56.8944805,40.4975989 C58.0086335,40.4490627 59.698998,40.1317107 60.2967705,39.9423662 C62.7891955,39.1364521 65.0714035,36.0082677 65.486448,34.2929667 C65.4923775,34.2678985 65.4999235,34.2438971 65.509626,34.220429 C66.491719,31.7653511 64.560952,28.1422042 63.942158,27.6643094 C62.073917,25.9292738 59.2661655,27.6531087 59.2370585,27.6707098 C58.9874925,27.8280524 58.6533005,27.7539147 58.493751,27.5059001 C58.33474,27.2573521 58.408586,26.928266 58.6592295,26.7703901 C58.802609,26.6797181 62.1984305,24.5830612 64.642344,26.8551951 C65.587245,27.5811045 67.6678595,31.6480108 66.5262165,34.5777834 C66.011453,36.6232373 63.5378935,40.0170373 60.6288065,40.956826 C59.9647345,41.1680384 58.2026805,41.5077918 56.9462265,41.5632617 C56.1409315,41.6069976 49.4824261,41.3792509 49.4150487,41.376584 C49.2668184,41.3728505 48.8404541,41.3739172 48.2459158,41.3803176 C48.1515875,42.6395918 48.0502518,43.9196672 47.9914987,44.4428981 L47.9408309,44.8951914 C47.7974518,46.1987349 47.581305,48.1620505 47.2816102,49.1013059 C46.1491307,54.4952235 42.9198661,58.0981025 41.5825592,59.3979125 C40.6608362,60.294499 34.5187112,64.7038255 29.2864508,65.3475965 C27.2047583,65.69055 24.3916165,65.9705665 21.5687724,65.9705665" id="Fill-6" stroke="#FF88DB" stroke-width="0.85" fill="#FF88DB" fill-rule="nonzero" mask="url(#mask-4)"></path>
                </g>
                <path d="M49.7,16.3 C49.7,16.6866154 49.3866154,17 49,17 C48.6133846,17 48.3,16.6866154 48.3,16.3 C48.3,15.9133846 48.6133846,15.6 49,15.6 C49.3866154,15.6 49.7,15.9133846 49.7,16.3" id="Fill-9" stroke="#FF88DB" stroke-width="0.85" fill="#FF88DB" fill-rule="nonzero"></path>
            </g>
            <path d="M72.193923,37.5956663 C73.0206575,37.5956663 73.7663945,37.3992416 74.431134,37.0063922 C75.095873,36.6135428 75.615375,36.0579415 75.98964,35.3395883 C76.363905,34.6212351 76.5510375,33.7906392 76.5510375,32.8478006 C76.5510375,31.9049621 76.363905,31.0771723 75.98964,30.3644312 C75.615375,29.6516902 75.098666,29.101701 74.439513,28.7144637 C73.7803595,28.3272265 73.03183,28.1336078 72.193923,28.1336078 C71.3336725,28.1336078 70.5879355,28.3356446 69.9567125,28.7397183 C69.3254895,29.143792 68.859055,29.6657205 68.5574085,30.3055038 L68.5574085,30.3055038 L68.5574085,25.0020368 L67.4010975,25.0020368 L67.4010975,37.4609751 L68.5574085,37.4609751 L68.5574085,35.4406067 C68.847883,36.08039 69.3087315,36.5995124 69.9399545,36.997974 C70.5711775,37.3964355 71.3225005,37.5956663 72.193923,37.5956663 Z M71.9593095,36.5686457 C71.3336725,36.5686457 70.761103,36.4171181 70.241601,36.1140628 C69.722099,35.8110076 69.3115245,35.3788732 69.009878,34.8176598 C68.708232,34.2564463 68.5574085,33.6054388 68.5574085,32.864637 C68.5574085,32.1238353 68.708232,31.4728277 69.009878,30.9116143 C69.3115245,30.3504008 69.722099,29.9182665 70.241601,29.6152112 C70.761103,29.312156 71.3336725,29.1606284 71.9593095,29.1606284 C72.6072905,29.1606284 73.188239,29.3065439 73.702155,29.5983748 C74.216071,29.8902058 74.6210595,30.313922 74.9171195,30.8695233 C75.21318,31.4251246 75.36121,32.0845504 75.36121,32.8478006 C75.36121,33.5998266 75.21318,34.2592524 74.9171195,34.826078 C74.6210595,35.3929036 74.216071,35.8250379 73.702155,36.122481 C73.188239,36.4199241 72.6072905,36.5686457 71.9593095,36.5686457 Z M80.217385,37.4609751 L80.217385,32.3258721 C80.217385,31.2483424 80.474343,30.47948 80.988259,30.0192849 C81.502175,29.5590899 82.1836725,29.3289924 83.032751,29.3289924 L83.032751,29.3289924 L83.3511555,29.3289924 L83.3511555,28.099935 C82.5802815,28.099935 81.9295075,28.2570748 81.3988335,28.5713543 C80.868159,28.8856338 80.474343,29.3289924 80.217385,29.9014301 L80.217385,29.9014301 L80.217385,28.268299 L79.044316,28.268299 L79.044316,37.4609751 L80.217385,37.4609751 Z M86.0287735,26.5341495 C86.2633875,26.5341495 86.464485,26.4499675 86.632066,26.2816034 C86.7996475,26.1132394 86.883438,25.9055904 86.883438,25.6586565 C86.883438,25.4117226 86.7996475,25.2068797 86.632066,25.0441278 C86.464485,24.8813759 86.2633875,24.8 86.0287735,24.8 C85.7941595,24.8 85.593062,24.8813759 85.4254805,25.0441278 C85.2578995,25.2068797 85.174109,25.4117226 85.174109,25.6586565 C85.174109,25.9055904 85.2578995,26.1132394 85.4254805,26.2816034 C85.593062,26.4499675 85.7941595,26.5341495 86.0287735,26.5341495 Z M86.615308,37.4609751 L86.615308,28.268299 L85.442239,28.268299 L85.442239,37.4609751 L86.615308,37.4609751 Z M93.4321845,37.5956663 C94.303607,37.5956663 95.05493,37.3908234 95.686153,36.9811376 C96.317376,36.5714518 96.7782245,36.0523294 97.068699,35.4237703 L97.068699,35.4237703 L97.068699,37.4609751 L98.241768,37.4609751 L98.241768,28.268299 L97.068699,28.268299 L97.068699,30.2886674 C96.789397,29.6601084 96.334134,29.143792 95.702911,28.7397183 C95.0716885,28.3356447 94.3203655,28.1336078 93.4489425,28.1336078 C92.611036,28.1336078 91.859713,28.3272265 91.194974,28.7144637 C90.5302345,29.101701 90.0107325,29.6516902 89.6364675,30.3644312 C89.2622025,31.0771723 89.07507,31.9049621 89.07507,32.8478007 C89.07507,33.7906392 89.2622025,34.6212351 89.6364675,35.3395883 C90.0107325,36.0579415 90.5302345,36.6135428 91.194974,37.0063922 C91.859713,37.3992416 92.60545,37.5956663 93.4321845,37.5956663 Z M93.666798,36.5686457 C93.018817,36.5686457 92.4378685,36.4199241 91.9239525,36.122481 C91.4100365,35.8250379 91.0050485,35.3929036 90.708988,34.826078 C90.4129275,34.2592524 90.2648975,33.5998266 90.2648975,32.8478006 C90.2648975,32.0845504 90.4129275,31.4251246 90.708988,30.8695233 C91.0050485,30.313922 91.4100365,29.8902058 91.9239525,29.5983748 C92.4378685,29.3065439 93.018817,29.1606284 93.666798,29.1606284 C94.292435,29.1606284 94.8650045,29.312156 95.3845065,29.6152112 C95.904009,29.9182665 96.314583,30.3504008 96.6162295,30.9116143 C96.917876,31.4728277 97.068699,32.1238353 97.068699,32.864637 C97.068699,33.6054388 96.917876,34.2564463 96.6162295,34.8176598 C96.314583,35.3788732 95.904009,35.8110076 95.3845065,36.1140628 C94.8650045,36.4171181 94.292435,36.5686457 93.666798,36.5686457 Z M102.427618,37.4609751 L102.427618,32.443727 C102.427618,31.3549729 102.690162,30.5299891 103.21525,29.9687757 C103.740338,29.4075623 104.444179,29.1269556 105.326774,29.1269556 C106.187025,29.1269556 106.865729,29.3907259 107.362887,29.9182665 C107.860045,30.4458072 108.108624,31.2090574 108.108624,32.2080173 L108.108624,32.2080173 L108.108624,37.4609751 L109.264935,37.4609751 L109.264935,32.0733261 C109.264935,30.7825352 108.918601,29.7976057 108.225931,29.1185374 C107.533262,28.4394691 106.639495,28.099935 105.54463,28.099935 C104.851961,28.099935 104.23191,28.2486565 103.684477,28.5460996 C103.137045,28.8435428 102.718092,29.272871 102.427618,29.8340845 L102.427618,29.8340845 L102.427618,28.268299 L101.254548,28.268299 L101.254548,37.4609751 L102.427618,37.4609751 Z M113.366995,37.4609751 L113.366995,32.443727 C113.366995,31.3549729 113.629538,30.5299891 114.154627,29.9687757 C114.679715,29.4075623 115.383556,29.1269556 116.266152,29.1269556 C117.126402,29.1269556 117.805106,29.3907259 118.302265,29.9182665 C118.799422,30.4458072 119.048001,31.2090574 119.048001,32.2080173 L119.048001,32.2080173 L119.048001,37.4609751 L120.204312,37.4609751 L120.204312,32.0733261 C120.204312,30.7825352 119.857978,29.7976057 119.165308,29.1185374 C118.472638,28.4394691 117.578871,28.099935 116.484007,28.099935 C115.791337,28.099935 115.171286,28.2486565 114.623854,28.5460996 C114.076422,28.8435428 113.657469,29.272871 113.366995,29.8340845 L113.366995,29.8340845 L113.366995,28.268299 L112.193926,28.268299 L112.193926,37.4609751 L113.366995,37.4609751 Z M126.954156,37.5956663 C127.825579,37.5956663 128.576902,37.3908234 129.208124,36.9811376 C129.839347,36.5714518 130.300196,36.0523294 130.59067,35.4237703 L130.59067,35.4237703 L130.59067,37.4609751 L131.76374,37.4609751 L131.76374,28.268299 L130.59067,28.268299 L130.59067,30.2886674 C130.311368,29.6601084 129.856106,29.143792 129.224883,28.7397183 C128.59366,28.3356447 127.842337,28.1336078 126.970914,28.1336078 C126.133007,28.1336078 125.381684,28.3272265 124.716945,28.7144637 C124.052206,29.101701 123.532704,29.6516902 123.158439,30.3644312 C122.784174,31.0771723 122.597042,31.9049621 122.597042,32.8478007 C122.597042,33.7906392 122.784174,34.6212351 123.158439,35.3395883 C123.532704,36.0579415 124.052206,36.6135428 124.716945,37.0063922 C125.381684,37.3992416 126.127421,37.5956663 126.954156,37.5956663 Z M127.18877,36.5686457 C126.540789,36.5686457 125.95984,36.4199241 125.445924,36.122481 C124.932008,35.8250379 124.52702,35.3929036 124.230959,34.826078 C123.934899,34.2592524 123.786869,33.5998266 123.786869,32.8478006 C123.786869,32.0845504 123.934899,31.4251246 124.230959,30.8695233 C124.52702,30.313922 124.932008,29.8902058 125.445924,29.5983748 C125.95984,29.3065439 126.540789,29.1606284 127.18877,29.1606284 C127.814407,29.1606284 128.386977,29.312156 128.906478,29.6152112 C129.42598,29.9182665 129.836554,30.3504008 130.138201,30.9116143 C130.439847,31.4728277 130.59067,32.1238353 130.59067,32.864637 C130.59067,33.6054388 130.439847,34.2564463 130.138201,34.8176598 C129.836554,35.3788732 129.42598,35.8110076 128.906478,36.1140628 C128.386977,36.4171181 127.814407,36.5686457 127.18877,36.5686457 Z M83.5225785,56.8585915 L83.5225785,51.8413435 C83.5225785,50.7525895 83.7851225,49.9276056 84.3102105,49.3663922 C84.835299,48.8051787 85.5391405,48.5245721 86.421735,48.5245721 C87.281986,48.5245721 87.9606905,48.7883423 88.457848,49.315883 C88.955006,49.8434236 89.203585,50.606674 89.203585,51.605634 L89.203585,51.605634 L89.203585,56.8585915 L90.359896,56.8585915 L90.359896,51.4709425 C90.359896,50.1801515 90.0135615,49.1952221 89.320892,48.5161538 C88.6282225,47.8370856 87.7344555,47.4975515 86.639591,47.4975515 C85.9469215,47.4975515 85.3268705,47.646273 84.7794385,47.9437162 C84.232006,48.2411592 83.8130525,48.6704875 83.5225785,49.231701 L83.5225785,49.231701 L83.5225785,47.6659155 L82.349509,47.6659155 L82.349509,56.8585915 L83.5225785,56.8585915 Z M93.8754205,45.931766 C94.1100345,45.931766 94.311132,45.847584 94.4787135,45.6792199 C94.6462945,45.5108559 94.7300855,45.303207 94.7300855,45.056273 C94.7300855,44.8093391 94.6462945,44.6044962 94.4787135,44.4417443 C94.311132,44.2789924 94.1100345,44.1976164 93.8754205,44.1976164 C93.6408065,44.1976164 93.439709,44.2789924 93.272128,44.4417443 C93.1045465,44.6044962 93.020756,44.8093391 93.020756,45.056273 C93.020756,45.303207 93.1045465,45.5108559 93.272128,45.6792199 C93.439709,45.847584 93.6408065,45.931766 93.8754205,45.931766 Z M94.461955,56.8585915 L94.461955,47.6659155 L93.288886,47.6659155 L93.288886,56.8585915 L94.461955,56.8585915 Z M101.362622,56.993283 C102.479831,56.993283 103.407114,56.707064 104.144472,56.134626 C104.88183,55.5621885 105.356643,54.8045505 105.568913,53.861712 L105.568913,53.861712 L104.312053,53.861712 C104.155644,54.535168 103.817688,55.0599025 103.298186,55.4359155 C102.778684,55.8119285 102.133496,55.999935 101.362622,55.999935 C100.748157,55.999935 100.195139,55.8596315 99.703567,55.579025 C99.2119955,55.298418 98.823765,54.877508 98.538877,54.3162945 C98.253989,53.7550815 98.1115445,53.070401 98.1115445,52.2622535 C98.1115445,51.454106 98.253989,50.772232 98.538877,50.2166305 C98.823765,49.6610292 99.2119955,49.2429252 99.703567,48.9623186 C100.195139,48.6817118 100.748157,48.5414085 101.362622,48.5414085 C102.133496,48.5414085 102.778684,48.729415 103.298186,49.105428 C103.817688,49.481441 104.155644,50.0005635 104.312053,50.662795 L104.312053,50.662795 L105.568913,50.662795 C105.356643,49.6975082 104.884623,48.9342579 104.152851,48.3730444 C103.421079,47.811831 102.491003,47.5312243 101.362622,47.5312243 C100.502371,47.5312243 99.7370835,47.7248429 99.066758,48.1120801 C98.396433,48.4993175 97.8713445,49.0493066 97.491494,49.7620476 C97.111643,50.4747885 96.9217175,51.3081905 96.9217175,52.2622535 C96.9217175,53.2163165 97.111643,54.0497185 97.491494,54.7624595 C97.8713445,55.4752005 98.396433,56.0251895 99.066758,56.412427 C99.7370835,56.799664 100.502371,56.993283 101.362622,56.993283 Z M112.067385,56.993283 C112.927636,56.993283 113.709682,56.799664 114.413523,56.412427 C115.117365,56.0251895 115.670383,55.4723945 116.072578,54.754041 C116.474773,54.035688 116.675871,53.205092 116.675871,52.2622535 C116.675871,51.3081905 116.477566,50.4747885 116.080957,49.7620476 C115.684348,49.0493066 115.136916,48.4993175 114.43866,48.1120801 C113.740405,47.7248429 112.961152,47.5312243 112.100901,47.5312243 C111.24065,47.5312243 110.46419,47.7248429 109.771521,48.1120801 C109.078851,48.4993175 108.531419,49.0493066 108.129224,49.7620476 C107.727029,50.4747885 107.525931,51.3081905 107.525931,52.2622535 C107.525931,53.2163165 107.724236,54.0497185 108.120845,54.7624595 C108.517454,55.4752005 109.0593,56.0251895 109.746384,56.412427 C110.433467,56.799664 111.207134,56.993283 112.067385,56.993283 Z M112.067385,55.966262 C111.464092,55.966262 110.908281,55.828765 110.399951,55.5537705 C109.891621,55.2787755 109.483839,54.863478 109.176607,54.3078765 C108.869375,53.752275 108.715758,53.070401 108.715758,52.2622535 C108.715758,51.454106 108.869375,50.772232 109.176607,50.2166305 C109.483839,49.6610292 109.894414,49.2457313 110.40833,48.9707368 C110.922246,48.6957422 111.48085,48.5582449 112.084143,48.5582449 C112.687436,48.5582449 113.24604,48.6957422 113.759956,48.9707368 C114.273872,49.2457313 114.687239,49.6610292 115.000058,50.2166305 C115.312876,50.772232 115.469285,51.454106 115.469285,52.2622535 C115.469285,53.070401 115.310083,53.752275 114.991679,54.3078765 C114.673274,54.863478 114.257114,55.2787755 113.743198,55.5537705 C113.229282,55.828765 112.670677,55.966262 112.067385,55.966262 Z M120.32546,56.8585915 L120.32546,44.3996533 L119.152391,44.3996533 L119.152391,56.8585915 L120.32546,56.8585915 Z M127.276402,56.993283 C128.382438,56.993283 129.301343,56.70987 130.033115,56.1430445 C130.764886,55.576219 131.242493,54.8438355 131.465935,53.945894 L131.465935,53.945894 L130.225833,53.945894 C130.058252,54.574453 129.71471,55.073933 129.195208,55.4443335 C128.675706,55.8147345 128.036104,55.999935 127.276402,55.999935 C126.695453,55.999935 126.159193,55.873662 125.667621,55.621116 C125.176049,55.36857 124.77944,54.995363 124.477794,54.501495 C124.176147,54.0076275 124.008566,53.412741 123.97505,52.7168365 L123.97505,52.7168365 L131.566484,52.7168365 C131.588828,52.5035755 131.6,52.194908 131.6,51.790834 C131.6,51.0051355 131.424039,50.2895885 131.072119,49.6441929 C130.720198,48.9987974 130.217454,48.4852871 129.563887,48.103662 C128.91032,47.7220369 128.147825,47.5312243 127.276402,47.5312243 C126.404979,47.5312243 125.628519,47.7220369 124.947022,48.103662 C124.265524,48.4852871 123.73485,49.0352763 123.354999,49.7536295 C122.975148,50.4719825 122.785223,51.3081905 122.785223,52.2622535 C122.785223,53.2163165 122.977941,54.0497185 123.363378,54.7624595 C123.748815,55.4752005 124.282282,56.0251895 124.96378,56.412427 C125.645277,56.799664 126.416151,56.993283 127.276402,56.993283 Z M130.410172,51.7571615 L123.97505,51.7571615 C124.042082,50.735753 124.382831,49.9444421 124.997296,49.3832286 C125.611761,48.8220151 126.354705,48.5414085 127.226127,48.5414085 C127.807076,48.5414085 128.343336,48.6648754 128.834908,48.9118093 C129.32648,49.1587433 129.71471,49.523532 129.999598,50.0061755 C130.284487,50.488819 130.421344,51.072481 130.410172,51.7571615 L130.410172,51.7571615 Z M69.6634455,65.3293825 C69.898059,65.3293825 70.0963635,65.2452005 70.258359,65.0768365 C70.4203545,64.9084725 70.501352,64.7008235 70.501352,64.4538895 C70.501352,64.2069555 70.4203545,64.0021125 70.258359,63.839361 C70.0963635,63.676609 69.898059,63.595233 69.6634455,63.595233 C69.4288315,63.595233 69.227734,63.676609 69.0601525,63.839361 C68.8925715,64.0021125 68.8087805,64.2069555 68.8087805,64.4538895 C68.8087805,64.7008235 68.8925715,64.9084725 69.0601525,65.0768365 C69.227734,65.2452005 69.4288315,65.3293825 69.6634455,65.3293825 Z M68.0211485,80.6 C68.758506,80.6 69.3115245,80.423218 69.6802035,80.0696535 C70.0488825,79.716089 70.233222,79.1689055 70.233222,78.428104 L70.233222,78.428104 L70.233222,67.063532 L69.0601525,67.063532 L69.0601525,78.377595 C69.0601525,78.8153415 68.96519,79.1268145 68.7752645,79.312015 C68.585339,79.4972155 68.2725205,79.589816 67.836809,79.589816 L67.836809,79.589816 L67.2,79.589816 L67.2,80.6 L68.0211485,80.6 Z M77.0668565,76.390899 C77.938279,76.390899 78.689602,76.1860565 79.320825,75.7763705 C79.952048,75.3666845 80.4128965,74.8475625 80.703371,74.2190035 L80.703371,74.2190035 L80.703371,76.256208 L81.87644,76.256208 L81.87644,67.063532 L80.703371,67.063532 L80.703371,69.0839005 C80.4240685,68.4553415 79.968806,67.939025 79.337583,67.534951 C78.70636,67.1308775 77.9550375,66.9288405 77.0836145,66.9288405 C76.245708,66.9288405 75.494385,67.1224595 74.8296455,67.5096965 C74.1649065,67.896934 73.6454045,68.446923 73.2711395,69.159664 C72.8968745,69.872405 72.709742,70.700195 72.709742,71.6430335 C72.709742,72.585872 72.8968745,73.416468 73.2711395,74.134821 C73.6454045,74.8531745 74.1649065,75.4087755 74.8296455,75.801625 C75.494385,76.1944745 76.240122,76.390899 77.0668565,76.390899 Z M77.30147,75.3638785 C76.653489,75.3638785 76.0725405,75.215157 75.5586245,74.917714 C75.0447085,74.620271 74.63972,74.1881365 74.34366,73.621311 C74.0475995,73.0544855 73.8995695,72.3950595 73.8995695,71.6430335 C73.8995695,70.8797835 74.0475995,70.2203575 74.34366,69.664756 C74.63972,69.109155 75.0447085,68.685439 75.5586245,68.393608 C76.0725405,68.101777 76.653489,67.9558615 77.30147,67.9558615 C77.927107,67.9558615 78.4996765,68.107389 79.0191785,68.410444 C79.5386805,68.7134995 79.949255,69.145634 80.2509015,69.706847 C80.5525475,70.2680605 80.703371,70.9190685 80.703371,71.65987 C80.703371,72.4006715 80.5525475,73.0516795 80.2509015,73.6128925 C79.949255,74.174106 79.5386805,74.6062405 79.0191785,74.909296 C78.4996765,75.212351 77.927107,75.3638785 77.30147,75.3638785 Z M88.793865,76.390899 C89.911074,76.390899 90.838357,76.1046805 91.575715,75.5322425 C92.313073,74.959805 92.7878865,74.202167 93.000156,73.2593285 L93.000156,73.2593285 L91.7432965,73.2593285 C91.586887,73.9327845 91.2489315,74.457519 90.7294295,74.833532 C90.2099275,75.209545 89.564739,75.3975515 88.793865,75.3975515 C88.1794005,75.3975515 87.626382,75.257248 87.13481,74.9766415 C86.6432385,74.6960345 86.255008,74.2751245 85.97012,73.713911 C85.685232,73.1526975 85.5427875,72.4680175 85.5427875,71.65987 C85.5427875,70.8517225 85.685232,70.1698485 85.97012,69.614247 C86.255008,69.0586455 86.6432385,68.6405415 87.13481,68.359935 C87.626382,68.0793285 88.1794005,67.939025 88.793865,67.939025 C89.564739,67.939025 90.2099275,68.1270315 90.7294295,68.5030445 C91.2489315,68.8790575 91.586887,69.39818 91.7432965,70.0604115 L91.7432965,70.0604115 L93.000156,70.0604115 C92.7878865,69.0951245 92.315866,68.3318745 91.584094,67.770661 C90.8523225,67.2094475 89.922246,66.9288405 88.793865,66.9288405 C87.9336145,66.9288405 87.1683265,67.1224595 86.498001,67.5096965 C85.827676,67.896934 85.302588,68.446923 84.922737,69.159664 C84.542886,69.872405 84.3529605,70.705807 84.3529605,71.65987 C84.3529605,72.613933 84.542886,73.447335 84.922737,74.160076 C85.302588,74.872817 85.827676,75.422806 86.498001,75.8100435 C87.1683265,76.1972805 87.9336145,76.390899 88.793865,76.390899 Z M96.666504,76.256208 L96.666504,72.1312895 L100.437083,76.256208 L102.029106,76.256208 L97.6552335,71.6430335 L101.995589,67.063532 L100.353292,67.063532 L96.666504,71.1716145 L96.666504,63.79727 L95.4934345,63.79727 L95.4934345,76.256208 L96.666504,76.256208 Z M107.019346,76.390899 C107.644983,76.390899 108.198001,76.2786565 108.678401,76.054171 C109.1588,75.829686 109.533065,75.5238245 109.801195,75.136587 C110.069326,74.74935 110.203391,74.3087975 110.203391,73.8149295 C110.192219,73.2761645 110.046981,72.8440305 109.767679,72.5185265 C109.488377,72.193023 109.153214,71.946089 108.762191,71.777725 C108.371168,71.609361 107.84608,71.4353845 107.186927,71.2557965 C106.639495,71.0986565 106.203783,70.955547 105.879793,70.826468 C105.555802,70.697389 105.284879,70.5178005 105.067023,70.287703 C104.849168,70.0576055 104.74024,69.7629685 104.74024,69.403792 C104.74024,68.988494 104.924579,68.6405415 105.293258,68.359935 C105.661937,68.0793285 106.142337,67.939025 106.734457,67.939025 C107.404783,67.939025 107.932664,68.104583 108.318101,68.435699 C108.703538,68.7668145 108.913015,69.201755 108.946531,69.74052 L108.946531,69.74052 L110.1196,69.74052 C110.074912,68.865027 109.750921,68.1775405 109.147628,67.6780605 C108.544336,67.1785805 107.751117,66.9288405 106.767974,66.9288405 C106.142337,66.9288405 105.583732,67.0410835 105.092161,67.265569 C104.600589,67.490054 104.220738,67.7931095 103.952608,68.1747345 C103.684477,68.5563595 103.550412,68.9716575 103.550412,69.4206285 C103.550412,70.0155145 103.698443,70.48974 103.994503,70.8433045 C104.290563,71.196869 104.650863,71.4634455 105.075402,71.6430335 C105.499942,71.822622 106.05296,72.00221 106.734457,72.1817985 C107.259546,72.3164895 107.675706,72.4427625 107.982938,72.5606175 C108.290171,72.6784725 108.544336,72.838418 108.745433,73.040455 C108.946531,73.242492 109.04708,73.50065 109.04708,73.8149295 C109.04708,74.2639005 108.865533,74.6399135 108.50244,74.9429685 C108.139347,75.246024 107.639397,75.3975515 107.002588,75.3975515 C106.276402,75.3975515 105.698246,75.2376055 105.268121,74.917714 C104.837996,74.5978225 104.595003,74.1797185 104.539142,73.663402 L104.539142,73.663402 L103.332557,73.663402 C103.410761,74.505222 103.782233,75.17026 104.446972,75.6585155 C105.111712,76.1467715 105.969169,76.390899 107.019346,76.390899 Z M116.752137,76.390899 C117.612388,76.390899 118.394434,76.1972805 119.098275,75.8100435 C119.802117,75.422806 120.355135,74.870011 120.75733,74.1516575 C121.159526,73.4333045 121.360624,72.6027085 121.360624,71.65987 C121.360624,70.705807 121.162318,69.872405 120.765709,69.159664 C120.369101,68.446923 119.821668,67.896934 119.123413,67.5096965 C118.425157,67.1224595 117.645904,66.9288405 116.785653,66.9288405 C115.925402,66.9288405 115.148943,67.1224595 114.456273,67.5096965 C113.763603,67.896934 113.216172,68.446923 112.813976,69.159664 C112.411781,69.872405 112.210683,70.705807 112.210683,71.65987 C112.210683,72.613933 112.408988,73.447335 112.805597,74.160076 C113.202206,74.872817 113.744052,75.422806 114.431136,75.8100435 C115.118219,76.1972805 115.891886,76.390899 116.752137,76.390899 Z M116.752137,75.3638785 C116.148844,75.3638785 115.593033,75.2263815 115.084703,74.951387 C114.576373,74.676392 114.168592,74.2610945 113.861359,73.705493 C113.554127,73.1498915 113.400511,72.4680175 113.400511,71.65987 C113.400511,70.8517225 113.554127,70.1698485 113.861359,69.614247 C114.168592,69.0586455 114.579166,68.643348 115.093082,68.368353 C115.606998,68.0933585 116.165602,67.9558615 116.768895,67.9558615 C117.372188,67.9558615 117.930792,68.0933585 118.444708,68.368353 C118.958624,68.643348 119.371991,69.0586455 119.68481,69.614247 C119.997628,70.1698485 120.154038,70.8517225 120.154038,71.65987 C120.154038,72.4680175 119.994835,73.1498915 119.676431,73.705493 C119.358026,74.2610945 118.941866,74.676392 118.42795,74.951387 C117.914034,75.2263815 117.35543,75.3638785 116.752137,75.3638785 Z M125.010213,76.256208 L125.010213,71.23896 C125.010213,70.150206 125.272757,69.325222 125.797845,68.7640085 C126.322933,68.202795 127.026774,67.9221885 127.909369,67.9221885 C128.76962,67.9221885 129.448325,68.185959 129.945482,68.7134995 C130.44264,69.24104 130.691219,70.0042905 130.691219,71.0032505 L130.691219,71.0032505 L130.691219,76.256208 L131.847531,76.256208 L131.847531,70.868559 C131.847531,69.577768 131.501195,68.5928385 130.808526,67.9137705 C130.115857,67.234702 129.22209,66.895168 128.127225,66.895168 C127.434556,66.895168 126.814505,67.0438895 126.267072,67.3413325 C125.71964,67.6387755 125.300687,68.068104 125.010213,68.6293175 L125.010213,68.6293175 L125.010213,67.063532 L123.837143,67.063532 L123.837143,76.256208 L125.010213,76.256208 Z" id="briannanicolejackson" fill="#4B4B4B" fill-rule="nonzero"></path>
        </g>
    </g>
</svg>